<svg width="40" height="41" viewBox="0 0 40 41" fill="none" xmlns="http://www.w3.org/2000/svg">
<path d="M34.5458 1.82194L1.81866 34.549C0.814513 35.5532 0.814513 37.1812 1.81866 38.1854C2.82281 39.1895 4.45087 39.1895 5.45502 38.1854L38.1822 5.45828C39.1863 4.45413 39.1863 2.82608 38.1822 1.82193C37.178 0.817787 35.55 0.817792 34.5458 1.82194Z" fill="#363636"/>
<path d="M38.1816 34.5453L5.45441 1.81817C4.45026 0.814023 2.82221 0.814023 1.81806 1.81817C0.813905 2.82232 0.813908 4.45037 1.81806 5.45452L34.5452 38.1816C35.5494 39.1857 37.1774 39.1857 38.1816 38.1816C39.1857 37.1774 39.1857 35.5494 38.1816 34.5453Z" fill="#363636"/>
</svg>
