<svg width="10" height="10" viewBox="0 0 10 10" fill="none" xmlns="http://www.w3.org/2000/svg">
<path d="M8.95327 0.348917L0.348829 8.95353C0.156176 9.14619 0.156176 9.45855 0.348829 9.6512C0.541481 9.84386 0.853833 9.84386 1.04649 9.6512L9.65092 1.04659C9.84358 0.853932 9.84358 0.541574 9.65092 0.348917C9.45827 0.156261 9.14592 0.156261 8.95327 0.348917Z" fill="black"/>
<path d="M9.65102 8.95345L1.04658 0.348836C0.85393 0.156179 0.541578 0.156179 0.348925 0.348836C0.156273 0.541492 0.156273 0.853851 0.348926 1.04651L8.95336 9.65112C9.14602 9.84378 9.45837 9.84378 9.65102 9.65112C9.84367 9.45847 9.84367 9.14611 9.65102 8.95345Z" fill="black"/>
</svg>
