<svg width="20" height="12" viewBox="0 0 20 12" fill="none" xmlns="http://www.w3.org/2000/svg">
<path d="M19.5707 2.37788L10.7204 11.6959C10.6151 11.8065 10.5009 11.8846 10.378 11.9303C10.2551 11.9768 10.1234 12 9.98291 12C9.84243 12 9.71072 11.9768 9.5878 11.9303C9.46488 11.8846 9.35074 11.8065 9.24538 11.6959L0.368762 2.37788C0.12292 2.11981 0 1.79723 0 1.41014C0 1.02304 0.131701 0.691244 0.395102 0.414746C0.658503 0.138248 0.965804 -9.53674e-07 1.31701 -9.53674e-07C1.66821 -9.53674e-07 1.97551 0.138248 2.23891 0.414746L9.98291 8.54378L17.7269 0.414746C17.9727 0.156682 18.2755 0.0276489 18.6351 0.0276489C18.9954 0.0276489 19.3073 0.165897 19.5707 0.442395C19.8341 0.718893 19.9658 1.04147 19.9658 1.41014C19.9658 1.7788 19.8341 2.10138 19.5707 2.37788Z" fill="black" fill-opacity="0.5"/>
</svg>
