<svg width="41" height="41" viewBox="0 0 41 41" fill="none" xmlns="http://www.w3.org/2000/svg">
<path d="M8.87585 17.9661C8.5421 17.9661 8.22202 18.1 7.98603 18.3384C7.75004 18.5768 7.61746 18.9002 7.61746 19.2373V34.4915C7.61746 34.8287 7.75004 35.152 7.98603 35.3904C8.22202 35.6288 8.5421 35.7627 8.87585 35.7627H31.5269C31.8606 35.7627 32.1807 35.6288 32.4167 35.3904C32.6527 35.152 32.7852 34.8287 32.7852 34.4915V19.2373C32.7852 18.9002 32.6527 18.5768 32.4167 18.3384C32.1807 18.1 31.8606 17.9661 31.5269 17.9661H8.87585ZM8.87585 15.4237H31.5269C32.5281 15.4237 33.4883 15.8255 34.1963 16.5407C34.9043 17.2559 35.302 18.2259 35.302 19.2373V34.4915C35.302 35.503 34.9043 36.4729 34.1963 37.1881C33.4883 37.9033 32.5281 38.3051 31.5269 38.3051H8.87585C7.87461 38.3051 6.91438 37.9033 6.2064 37.1881C5.49842 36.4729 5.10068 35.503 5.10068 34.4915V19.2373C5.10068 18.2259 5.49842 17.2559 6.2064 16.5407C6.91438 15.8255 7.87461 15.4237 8.87585 15.4237Z" fill="black" fill-opacity="0.5"/>
<path d="M20.2013 21.7796C20.5351 21.7796 20.8552 21.9136 21.0911 22.152C21.3271 22.3904 21.4597 22.7137 21.4597 23.0508V30.678C21.4597 31.0151 21.3271 31.3384 21.0911 31.5768C20.8552 31.8152 20.5351 31.9491 20.2013 31.9491C19.8676 31.9491 19.5475 31.8152 19.3115 31.5768C19.0755 31.3384 18.9429 31.0151 18.9429 30.678V23.0508C18.9429 22.7137 19.0755 22.3904 19.3115 22.152C19.5475 21.9136 19.8676 21.7796 20.2013 21.7796ZM27.7517 15.4237V12.8813C27.7517 10.8585 26.9562 8.91852 25.5402 7.48816C24.1243 6.0578 22.2038 5.25423 20.2013 5.25423C18.1989 5.25423 16.2784 6.0578 14.8624 7.48816C13.4465 8.91852 12.651 10.8585 12.651 12.8813V15.4237H27.7517ZM20.2013 2.71185C22.8713 2.71185 25.4319 3.78328 27.3199 5.69043C29.2078 7.59758 30.2684 10.1842 30.2684 12.8813V17.9661H10.1342V12.8813C10.1342 10.1842 11.1949 7.59758 13.0828 5.69043C14.9708 3.78328 17.5314 2.71185 20.2013 2.71185Z" fill="black" fill-opacity="0.5"/>
</svg>
