<svg width="40" height="40" viewBox="0 0 40 40" fill="none" xmlns="http://www.w3.org/2000/svg">
<path d="M20 20C21.9891 20 23.8968 19.2098 25.3033 17.8033C26.7098 16.3968 27.5 14.4891 27.5 12.5C27.5 10.5109 26.7098 8.60322 25.3033 7.1967C23.8968 5.79018 21.9891 5 20 5C18.0109 5 16.1032 5.79018 14.6967 7.1967C13.2902 8.60322 12.5 10.5109 12.5 12.5C12.5 14.4891 13.2902 16.3968 14.6967 17.8033C16.1032 19.2098 18.0109 20 20 20ZM20 22.5C17.3478 22.5 14.8043 21.4464 12.9289 19.5711C11.0536 17.6957 10 15.1522 10 12.5C10 9.84784 11.0536 7.3043 12.9289 5.42893C14.8043 3.55357 17.3478 2.5 20 2.5C22.6522 2.5 25.1957 3.55357 27.0711 5.42893C28.9464 7.3043 30 9.84784 30 12.5C30 15.1522 28.9464 17.6957 27.0711 19.5711C25.1957 21.4464 22.6522 22.5 20 22.5ZM32.5 35V31.25C32.5 30.2554 32.1049 29.3016 31.4017 28.5983C30.6984 27.8951 29.7446 27.5 28.75 27.5H11.25C10.2554 27.5 9.30161 27.8951 8.59835 28.5983C7.89509 29.3016 7.5 30.2554 7.5 31.25V35C7.5 35.3315 7.3683 35.6495 7.13388 35.8839C6.89946 36.1183 6.58152 36.25 6.25 36.25C5.91848 36.25 5.60054 36.1183 5.36612 35.8839C5.1317 35.6495 5 35.3315 5 35V31.25C5 29.5924 5.65848 28.0027 6.83058 26.8306C8.00269 25.6585 9.5924 25 11.25 25H28.75C30.4076 25 31.9973 25.6585 33.1694 26.8306C34.3415 28.0027 35 29.5924 35 31.25V35C35 35.3315 34.8683 35.6495 34.6339 35.8839C34.3995 36.1183 34.0815 36.25 33.75 36.25C33.4185 36.25 33.1005 36.1183 32.8661 35.8839C32.6317 35.6495 32.5 35.3315 32.5 35Z" fill="black" fill-opacity="0.5"/>
</svg>
