<svg width="41" height="41" viewBox="0 0 41 41" fill="none" xmlns="http://www.w3.org/2000/svg">
<path d="M8.87588 17.966C8.54213 17.966 8.22205 18.1 7.98606 18.3384C7.75007 18.5768 7.61749 18.9001 7.61749 19.2372V34.4915C7.61749 34.8286 7.75007 35.1519 7.98606 35.3903C8.22205 35.6287 8.54213 35.7627 8.87588 35.7627H31.5269C31.8606 35.7627 32.1807 35.6287 32.4167 35.3903C32.6527 35.1519 32.7853 34.8286 32.7853 34.4915V19.2372C32.7853 18.9001 32.6527 18.5768 32.4167 18.3384C32.1807 18.1 31.8606 17.966 31.5269 17.966H8.87588ZM8.87588 15.4237H31.5269C32.5281 15.4237 33.4883 15.8255 34.1963 16.5406C34.9043 17.2558 35.302 18.2258 35.302 19.2372V34.4915C35.302 35.5029 34.9043 36.4729 34.1963 37.1881C33.4883 37.9032 32.5281 38.305 31.5269 38.305H8.87588C7.87464 38.305 6.91441 37.9032 6.20643 37.1881C5.49845 36.4729 5.10071 35.5029 5.10071 34.4915V19.2372C5.10071 18.2258 5.49845 17.2558 6.20643 16.5406C6.91441 15.8255 7.87464 15.4237 8.87588 15.4237Z" fill="#808080"/>
<path d="M20.2014 21.7796C20.5351 21.7796 20.8552 21.9135 21.0912 22.1519C21.3272 22.3903 21.4598 22.7136 21.4598 23.0508V30.6779C21.4598 31.015 21.3272 31.3384 21.0912 31.5768C20.8552 31.8152 20.5351 31.9491 20.2014 31.9491C19.8676 31.9491 19.5476 31.8152 19.3116 31.5768C19.0756 31.3384 18.943 31.015 18.943 30.6779V23.0508C18.943 22.7136 19.0756 22.3903 19.3116 22.1519C19.5476 21.9135 19.8676 21.7796 20.2014 21.7796ZM27.7517 15.4237V12.8813C27.7517 10.8584 26.9562 8.91846 25.5403 7.4881C24.1243 6.05773 22.2039 5.25416 20.2014 5.25416C18.1989 5.25416 16.2785 6.05773 14.8625 7.4881C13.4465 8.91846 12.6511 10.8584 12.6511 12.8813V15.4237H27.7517ZM20.2014 2.71179C22.8714 2.71179 25.432 3.78322 27.3199 5.69037C29.2079 7.59752 30.2685 10.1842 30.2685 12.8813V17.966H10.1343V12.8813C10.1343 10.1842 11.1949 7.59752 13.0829 5.69037C14.9708 3.78322 17.5314 2.71179 20.2014 2.71179Z" fill="#808080"/>
</svg>
