<svg width="40" height="40" viewBox="0 0 40 40" fill="none" xmlns="http://www.w3.org/2000/svg">
<mask id="mask0_35_30" style="mask-type:alpha" maskUnits="userSpaceOnUse" x="0" y="0" width="40" height="40">
<circle cx="20" cy="20" r="20" fill="#D9D9D9"/>
</mask>
<g mask="url(#mask0_35_30)">
<g clip-path="url(#clip0_35_30)">
<path d="M20 23C21.9891 23 23.8968 22.2098 25.3033 20.8033C26.7098 19.3968 27.5 17.4891 27.5 15.5C27.5 13.5109 26.7098 11.6032 25.3033 10.1967C23.8968 8.79018 21.9891 8 20 8C18.0109 8 16.1032 8.79018 14.6967 10.1967C13.2902 11.6032 12.5 13.5109 12.5 15.5C12.5 17.4891 13.2902 19.3968 14.6967 20.8033C16.1032 22.2098 18.0109 23 20 23ZM20 25.5C17.3478 25.5 14.8043 24.4464 12.9289 22.5711C11.0536 20.6957 10 18.1522 10 15.5C10 12.8478 11.0536 10.3043 12.9289 8.42893C14.8043 6.55357 17.3478 5.5 20 5.5C22.6522 5.5 25.1957 6.55357 27.0711 8.42893C28.9464 10.3043 30 12.8478 30 15.5C30 18.1522 28.9464 20.6957 27.0711 22.5711C25.1957 24.4464 22.6522 25.5 20 25.5ZM32.5 38V34.25C32.5 33.2554 32.1049 32.3016 31.4017 31.5983C30.6984 30.8951 29.7446 30.5 28.75 30.5H11.25C10.2554 30.5 9.30161 30.8951 8.59835 31.5983C7.89509 32.3016 7.5 33.2554 7.5 34.25V38C7.5 38.3315 7.3683 38.6495 7.13388 38.8839C6.89946 39.1183 6.58152 39.25 6.25 39.25C5.91848 39.25 5.60054 39.1183 5.36612 38.8839C5.1317 38.6495 5 38.3315 5 38V34.25C5 32.5924 5.65848 31.0027 6.83058 29.8306C8.00269 28.6585 9.5924 28 11.25 28H28.75C30.4076 28 31.9973 28.6585 33.1694 29.8306C34.3415 31.0027 35 32.5924 35 34.25V38C35 38.3315 34.8683 38.6495 34.6339 38.8839C34.3995 39.1183 34.0815 39.25 33.75 39.25C33.4185 39.25 33.1005 39.1183 32.8661 38.8839C32.6317 38.6495 32.5 38.3315 32.5 38Z" fill="white"/>
</g>
<circle cx="20" cy="20" r="18.5" stroke="white" stroke-width="3"/>
</g>
<defs>
<clipPath id="clip0_35_30">
<rect width="40" height="40" fill="white" transform="translate(0 3)"/>
</clipPath>
</defs>
</svg>
